 http://img148.imageshack.us/img148/6859/pageeight2011.jpg

Country.......: United Kingdom
Genre.........: Thriller
Date release..: 18.06.2011 [World]
Director......: David Hare
Writers.......: David Hare
Duration......: 99 min.
More..........: http://www.imdb.com/title/tt1797469
Trailer.......:

Pilot :
Johnny Worricker (Bill Nighy) is a long-serving MI5 officer. His boss and best friend Benedict Baron (Michael Gambon) dies suddenly, leaving behind him an inexplicable file, threatening the stability of the organization. Meanwhile, a seemingly chance encounter with Johnny's striking next-door neighbor and political activist Nancy Pierpan (Rachel Weisz) seems too good to be true. Johnny is forced to walk out of his job, and then out of his identity to find out the truth. Set in London and Cambridge, PAGE EIGHT is a contemporary spy film for the BBC, which addresses intelligence issues and moral dilemmas peculiar to the new century.

Cats :
Bill Nighy   	 ...  	Johnny Worricker
Tom Hughes 	... 	Ralph Wilson
Michael Gambon 	... 	Benedict Baron
Judy Davis 	... 	Jill Tankard
Rakhee Thakrar 	... 	Muna Hammami
Saskia Reeves 	... 	Anthea Catcheside
Ewen Bremner 	... 	Rollo Maverley
Richard Lintern 	... 	Max Vallance
Holly Aird 	... 	Anna Hervé
Andrew Cleaver 	... 	Brian Lord
Kate Burdette 	... 	Allegra Betts
Ralph Fiennes 	... 	Alec Beasley
Pippa Andre 	... 	Receptionist
Dixie Arnold 	... 	Dinner Guest
Jay Benedict 	... 	Master of Jesus College 

Data Technical :
!!! SAMPLE !!!
Audio.....: English
Subtitles.: English .srt
Format                           : AVI
Format/Info                      : Audio Video Interleave
File size                        : 1.67 GiB
Duration                         : 1h 38mn
Overall bit rate                 : 2 426 Kbps
Writing application              : Nandub v1.0rc2
Writing library                  : Nandub build 1853/release
Video
ID                               : 0
Format                           : MPEG-4 Visual
Format profile                   : Advanced Simple@L5
Format settings, BVOP            : Yes
Format settings, QPel            : Yes
Format settings, GMC             : No warppoints
Format settings, Matrix          : Default (H.263)
Muxing mode                      : Packed bitstream
Codec ID                         : XVID
Codec ID/Hint                    : XviD
Duration                         : 1h 38mn
Bit rate                         : 2 225 Kbps
Width                            : 720 pixels
Height                           : 304 pixels
Display aspect ratio             : 2.35:1
Frame rate                       : 25.000 fps
Color space                      : YUV
Chroma subsampling               : 4:2:0
Bit depth                        : 8 bits
Scan type                        : Progressive
Bits/(Pixel*Frame)               : 0.407
Stream size                      : 1.53 GiB (92%)
Writing library                  : XviD 1.2.1 (UTC 2008-12-04)
Audio
ID                               : 1
Format                           : AC-3
Format/Info                      : Audio Coding 3
Mode extension                   : CM (complete main)
Codec ID                         : 2000
Duration                         : 1h 38mn
Bit rate mode                    : Constant
Bit rate                         : 192 Kbps
Channel(s)                       : 2 channels
Channel positions                : Front: L R
Sampling rate                    : 48.0 KHz
Bit depth                        : 16 bits
Stream size                      : 135 MiB (8%)
Alignment                        : Split accross interleaves
Interleave, duration             : 40 ms (1.00 video frame)
Interleave, preload duration     : 500 ms

Screen : 
http://img839.imageshack.us/img839/5704/pageeight2011s1.jpg 
http://img43.imageshack.us/img43/3466/pageeight2011s2.jpg 
http://img830.imageshack.us/img830/866/pageeight2011s3.jpg 
http://img163.imageshack.us/img163/7285/pageeight2011s4.jpg 
http://img713.imageshack.us/img713/2182/pageeight2011s5.jpg